<?xml version="1.0" encoding="utf-8"?><svg viewBox="0 0 585 682" xmlns="http://www.w3.org/2000/svg" xmlns:xlink="http://www.w3.org/1999/xlink"><style>:root>svg{display:none}:root>svg:target{display:block}</style><svg viewBox="0 0 110 110" id="icon_icon01" xmlns="http://www.w3.org/2000/svg"><g fill="none" stroke="#1F65D9" stroke-width="6" stroke-miterlimit="10"><path d="M102.6 75.9c-2.3 5.2-5.5 10-9.3 14.2M43.8 4.2C47.4 3.4 51.2 3 55 3c28.7 0 52 23.3 52 52 0 2.6-.2 5.2-.6 7.6M11.3 26.7c1.1-1.7 2.3-3.3 3.6-4.9M70.2 104.7c-4.8 1.5-9.9 2.3-15.2 2.3-28.7 0-52-23.3-52-52 0-5.4.8-10.6 2.3-15.5"/><path d="M17.7 55c0-20.6 16.7-37.3 37.3-37.3 6.8 0 13.2 1.8 18.7 5M29.1 81.9c-1.9-1.8-3.6-3.8-5-6M92.3 55c0 20.6-16.7 37.3-37.3 37.3-6.8 0-13.2-1.8-18.7-5M80.9 28.1c1.9 1.8 3.6 3.8 5 6M71.5 45.4L55 35.8l-16.5 9.6v19.2L55 74.2l16.5-9.6z"/></g></svg><svg viewBox="0 0 108.5 110.1" id="icon_icon02" xmlns="http://www.w3.org/2000/svg"><g fill="none" stroke="#1F65D9" stroke-width="6" stroke-miterlimit="10"><path d="M3 91.3V66.1h22.4M25.4 74.7v32.4H3M42.5 68.5V3h22.4v104.1H42.5M42.5 81.3v-6.6M105.5 90v17.1H83.1v-8.5M83.1 91.3v-52h22.4v37.2"/></g></svg><svg viewBox="0 0 109.6 107" id="icon_icon03" xmlns="http://www.w3.org/2000/svg"><g fill="none" stroke="#1F65D9" stroke-width="6" stroke-miterlimit="10"><path d="M30.3 61.3C25.4 47.9 32.3 33 45.8 28c4.4-1.6 9-2 13.4-1.2M44.2 76.1c-1.7-.7-3.2-1.6-4.7-2.7M79 43.5c4.9 13.4-2 28.3-15.5 33.3-4.4 1.6-9 2-13.4 1.2M65.1 28.7c1.7.7 3.2 1.6 4.7 2.7"/><path d="M88 12.4L36.7 3.3l-33.3 40 18 49.1 51.2 9.2 33.3-40.1zM73.2 70.5l34.3 34.4"/></g></svg><svg viewBox="0 0 109.3 110.1" id="icon_icon04" xmlns="http://www.w3.org/2000/svg"><g fill="none" stroke="#1F65D9" stroke-width="6" stroke-miterlimit="10"><path d="M82.2 67.8C74 83.6 54.5 89.7 38.7 81.5c-5.2-2.7-9.4-6.7-12.3-11.3M37.7 37.4V44M67.6 37.4V44M19 93.3c-4.5-4.1-8.2-9-11-14.4"/><path d="M106.3 56.2c-.6 28.2-23.7 50.9-52 50.9-7.4 0-14.5-1.6-20.9-4.4M92.2 19.4c1.6 1.7 3.1 3.5 4.4 5.4M74.5 7.1c2.7 1.1 5.2 2.5 7.6 4M3 46.3C7.1 21.7 28.5 3 54.3 3c4.6 0 9.1.6 13.3 1.7"/></g></svg><svg fill="none" viewBox="0 0 238 278" id="paper" xmlns="http://www.w3.org/2000/svg"><path d="M169.533 0H36.283v122.25h17.934V17.931H151.6v68.457h68.536v173.75H151.6V278H238V68.457v.07L169.533 0zm-.069 68.457V25.298l43.235 43.16h-43.235zM0 139v139h133.666V139H0zm115.733 116.204l-33.156-33.152L59.5 245.127l-13.971-13.97-27.735 27.731V156.931h97.87v98.273h.069zm-16.404-58.589c0 5.282-4.31 9.592-9.592 9.592-5.283 0-9.593-4.31-9.593-9.592 0-5.282 4.31-9.59 9.593-9.59 5.282.069 9.592 4.308 9.592 9.59z" fill="#fff"/></svg><svg fill="none" viewBox="0 0 585 682" id="symbol-logo" xmlns="http://www.w3.org/2000/svg"><g clip-path="url(#fclip0_2_264)"><path opacity=".02" d="M584.625 397.74v113.479l-97.375 56.927-97.375 56.927-48.688 28.463L292.5 682l-48.688-28.464-48.687-28.463-97.375-56.927L0 511.219V397.74l97.375-56.553v113.48l97.375 56.927 48.688 28.463 48.687 28.464 48.688-28.464 48.687-28.463 97.375-56.927V340.813l97.75 56.927zm-.375-227.334l-97.375-56.927L389.5 56.552l-48.687-28.088L292.125 0l-48.687 28.463-48.688 28.464-97.375 56.552L0 170.406v113.48l97.375-56.553 97.375-56.927 48.688-28.089v283.886l48.687 28.464 48.688-28.464v-284.26l48.687 28.463 97.375 56.927 97.375 56.927V170.406z" fill="#fff"/></g><defs><clipPath id="fclip0_2_264"><path fill="#fff" d="M0 0h584.625v682H0z"/></clipPath></defs></svg></svg>