<?xml version="1.0" standalone="no"?>
<!DOCTYPE svg PUBLIC "-//W3C//DTD SVG 20010904//EN"
 "http://www.w3.org/TR/2001/REC-SVG-20010904/DTD/svg10.dtd">
<svg version="1.0" xmlns="http://www.w3.org/2000/svg"
 width="570.000000pt" height="570.000000pt" viewBox="0 0 570.000000 570.000000"
 preserveAspectRatio="xMidYMid meet">
<metadata>
Created by potrace 1.14, written by Peter Selinger 2001-2017
</metadata>
<g transform="translate(0.000000,570.000000) scale(0.100000,-0.100000)"
fill="#000000" stroke="none">
<path d="M2785 5615 c-33 -20 -67 -40 -75 -45 -8 -5 -160 -93 -338 -197 -178
-103 -351 -205 -385 -225 -34 -21 -71 -42 -83 -47 -19 -8 -92 -52 -149 -89
-11 -7 -31 -18 -45 -25 -23 -11 -104 -58 -295 -172 -38 -23 -88 -52 -110 -64
-22 -12 -53 -30 -70 -41 -16 -11 -37 -23 -45 -27 -8 -4 -59 -33 -113 -65 -54
-32 -103 -58 -108 -58 -5 0 -9 -4 -9 -10 0 -5 -4 -10 -10 -10 -8 0 -107 -56
-160 -90 -8 -6 -26 -16 -40 -22 -14 -7 -27 -15 -30 -18 -3 -3 -21 -14 -40 -24
-19 -10 -81 -46 -137 -79 l-103 -61 0 -467 0 -468 153 88 c208 121 455 264
497 290 19 12 43 24 53 27 9 4 17 10 17 15 0 5 5 9 11 9 6 0 54 26 108 58 53
32 142 85 199 118 56 32 135 78 175 101 39 24 94 55 121 70 27 16 56 33 65 38
9 6 43 26 76 45 33 19 72 42 86 50 14 8 59 34 100 58 41 23 81 47 89 52 18 11
147 86 211 123 l45 26 0 -1142 c-1 -628 0 -1156 2 -1172 3 -26 14 -36 74 -70
39 -22 83 -47 97 -55 14 -9 57 -33 94 -55 38 -22 81 -48 95 -57 15 -9 32 -17
38 -17 6 -1 98 50 205 112 l194 113 3 1172 c2 1043 5 1208 24 1164 3 -8 54
-39 153 -93 33 -17 67 -38 76 -45 8 -8 19 -14 22 -14 4 0 26 -11 48 -26 22
-14 55 -33 72 -43 18 -10 72 -42 120 -70 49 -28 93 -51 98 -51 5 0 9 -4 9 -9
0 -5 8 -11 18 -14 17 -6 87 -46 132 -76 14 -9 39 -23 55 -31 17 -8 49 -27 71
-42 23 -16 45 -28 48 -28 3 0 30 -16 60 -35 30 -19 58 -35 61 -35 3 0 30 -16
60 -34 30 -19 71 -44 92 -56 21 -11 56 -32 78 -45 22 -13 46 -27 54 -31 7 -4
86 -50 175 -102 174 -102 206 -121 264 -153 20 -12 69 -40 107 -63 39 -24 78
-45 88 -49 16 -6 17 20 17 458 l0 465 -40 25 c-22 14 -42 25 -45 25 -2 0 -28
15 -58 33 -29 17 -61 37 -72 44 -21 12 -336 196 -383 223 -15 9 -56 33 -92 54
-36 21 -81 48 -100 59 -59 33 -224 129 -247 143 -13 8 -25 13 -27 12 -2 -2
-12 4 -22 13 -11 9 -64 42 -119 74 -55 32 -113 65 -130 75 -57 33 -280 163
-310 181 -16 10 -52 31 -80 47 -27 16 -122 71 -210 122 -88 51 -173 101 -190
110 -16 10 -70 41 -120 70 -115 67 -155 90 -158 90 -1 0 -29 -16 -62 -35z"/>
<path d="M1196 2815 c-20 -14 -39 -25 -41 -25 -2 0 -38 -20 -79 -45 -42 -25
-81 -45 -86 -45 -6 0 -10 -4 -10 -9 0 -5 -8 -11 -17 -14 -10 -4 -36 -17 -58
-30 -51 -31 -194 -115 -310 -182 -49 -28 -105 -60 -122 -71 l-33 -19 0 -467 0
-468 38 -23 c20 -12 46 -28 57 -34 11 -6 238 -139 505 -295 266 -155 489 -285
495 -287 5 -2 17 -9 25 -16 8 -7 40 -26 70 -42 30 -17 171 -98 314 -182 142
-83 262 -151 267 -151 5 0 9 -4 9 -9 0 -5 8 -11 18 -14 9 -4 37 -18 62 -33
408 -240 537 -314 551 -314 6 0 45 20 86 45 40 25 75 45 78 45 2 0 40 23 85
50 45 28 83 50 84 50 3 0 308 176 346 199 8 5 152 90 319 188 167 98 325 190
350 205 25 15 56 32 69 38 12 5 35 18 50 29 24 17 501 295 562 329 14 7 45 25
70 40 25 15 103 60 173 101 l127 74 -2 474 -3 475 -195 113 c-107 63 -200 117
-205 122 -6 4 -40 24 -78 43 -37 19 -67 38 -67 43 0 4 -4 7 -9 7 -5 0 -59 29
-120 65 -60 36 -111 65 -113 65 -2 0 -4 -207 -3 -461 0 -253 -2 -464 -5 -469
-5 -8 -137 -90 -145 -90 -3 0 -29 -16 -59 -35 -30 -19 -57 -35 -60 -35 -4 0
-150 -87 -186 -110 -8 -6 -22 -13 -30 -17 -8 -4 -43 -24 -78 -45 -34 -21 -64
-38 -67 -38 -3 0 -29 -16 -59 -35 -30 -19 -58 -35 -61 -35 -4 0 -19 -8 -33
-19 -15 -10 -47 -29 -72 -43 -25 -14 -119 -69 -209 -122 -90 -53 -165 -96
-167 -96 -2 0 -28 -16 -58 -35 -30 -19 -57 -35 -60 -35 -2 0 -61 -34 -131 -76
l-128 -76 -28 21 c-16 12 -31 21 -34 21 -4 0 -112 62 -175 101 -50 30 -489
284 -507 293 -13 6 -23 14 -23 19 0 4 -5 7 -10 7 -6 0 -172 95 -371 211 -199
116 -377 220 -398 231 -20 11 -41 24 -47 29 -7 5 -10 158 -10 474 1 256 -2
465 -5 465 -3 0 -23 -11 -43 -25z"/>
</g>
</svg>
